<?xml version="1.0" encoding="utf-8"?>
<!-- Generator: Adobe Illustrator 24.0.2, SVG Export Plug-In . SVG Version: 6.00 Build 0)  -->
<svg version="1.1" id="Слой_1" xmlns="http://www.w3.org/2000/svg" xmlns:xlink="http://www.w3.org/1999/xlink" x="0px" y="0px"
	 viewBox="0 0 89.2 88.6" style="enable-background:new 0 0 89.2 88.6;" xml:space="preserve">
<style type="text/css">
	.st0{fill:url(#SVGID_1_);}
	.st1{fill:#D8A1FF;}
</style>
<radialGradient id="SVGID_1_" cx="-899.6223" cy="577.1579" r="1" gradientTransform="matrix(62.1407 0 0 -61.2673 55933.7891 35382.8047)" gradientUnits="userSpaceOnUse">
	<stop  offset="0" style="stop-color:#442F55;stop-opacity:0.98"/>
	<stop  offset="1" style="stop-color:#12002C"/>
</radialGradient>
<path class="st0" d="M3.7,3.7h81.8v81H3.7V3.7z"/>
<path class="st1" d="M3.7,3.8h81.8v81H3.7V3.8z M0,88.6h89.2V0H0V88.6z M63.1,42.7c1.9,0,2.6,0,2.8-0.1c0-0.3,0.1-0.5,0.1-0.6
	c0-2-1-5.8-4.8-5.8c-3.6,0-5.1,3.2-5.5,6.5L63.1,42.7L63.1,42.7z M55.6,47.9c0.1,5.1,2.4,8.5,8.1,8.5c2.2,0,4.1-0.3,6.1-1.2
	c0.3-0.1,0.4-0.1,0.4,0.3v4.7c0,0.4-0.1,0.6-0.4,0.8c-2,1-4.4,1.4-7.5,1.4c-9.8,0-13.5-7.4-13.5-15.6c0-8.9,4.5-16.2,12.5-16.2
	c8.1,0,10.9,6.9,10.9,12.6c0,1.8-0.1,3.3-0.3,4c-0.1,0.3-0.2,0.4-0.5,0.5c-0.8,0.1-2.9,0.3-6.2,0.3h-9.7L55.6,47.9L55.6,47.9z
	 M35.6,44c-1-4.2-3.6-13.4-4.5-17.8h-0.1c-0.8,4.4-2.8,11.9-4.3,17.8H35.6z M25.2,50.2l-2.9,11.3c-0.1,0.3-0.2,0.4-0.6,0.4h-5.5
	c-0.4,0-0.4-0.1-0.4-0.6l10.6-37.6c0.2-0.7,0.3-1.2,0.4-3.1c0-0.3,0.1-0.4,0.3-0.4h7.8c0.3,0,0.4,0.1,0.4,0.4l11.8,40.8
	c0.1,0.3,0,0.5-0.3,0.5h-6.1c-0.3,0-0.5-0.1-0.6-0.4l-3.1-11.4H25.2z"/>
</svg>
