<?xml version="1.0" encoding="utf-8"?>
<!-- Generator: Adobe Illustrator 24.0.2, SVG Export Plug-In . SVG Version: 6.00 Build 0)  -->
<svg version="1.1" id="Слой_1" xmlns="http://www.w3.org/2000/svg" xmlns:xlink="http://www.w3.org/1999/xlink" x="0px" y="0px"
	 viewBox="0 0 89.2 88.6" style="enable-background:new 0 0 89.2 88.6;" xml:space="preserve">
<style type="text/css">
	.st0{fill:url(#SVGID_1_);}
	.st1{fill:#FF7F18;}
</style>
<radialGradient id="SVGID_1_" cx="-899.6204" cy="577.1572" r="1" gradientTransform="matrix(62.1406 0 0 -61.2673 55933.6328 35382.8203)" gradientUnits="userSpaceOnUse">
	<stop  offset="0" style="stop-color:#423325;stop-opacity:0.98"/>
	<stop  offset="1" style="stop-color:#1C0A00"/>
</radialGradient>
<path class="st0" d="M3.7,3.8h81.8v81H3.7V3.8z"/>
<path class="st1" d="M3.7,3.8h81.8v81H3.7V3.8z M0,88.6h89.2V0H0V88.6z M58.4,31.6c0-0.3,0.1-0.5,0.4-0.5h5.8c0.3,0,0.4,0.1,0.4,0.5
	v29.9c0,0.3-0.1,0.5-0.4,0.5h-5.8c-0.4,0-0.5-0.2-0.5-0.5L58.4,31.6L58.4,31.6z M58,23c0-2.4,1.7-3.9,3.8-3.9c2.3,0,3.8,1.5,3.8,3.9
	c0,2.5-1.6,3.9-3.9,3.9C59.6,26.9,58,25.5,58,23z M41.3,44c-1-4.2-3.5-13.4-4.4-17.8h-0.1C36,30.7,34,38.1,32.5,44H41.3z M31,50.2
	L28,61.5c-0.1,0.3-0.2,0.4-0.6,0.4H22c-0.4,0-0.4-0.1-0.4-0.6l10.6-37.6c0.2-0.7,0.3-1.3,0.4-3.1c0-0.3,0.1-0.4,0.3-0.4h7.8
	c0.3,0,0.4,0.1,0.4,0.4L53,61.4c0.1,0.3,0,0.5-0.3,0.5h-6.2c-0.3,0-0.5-0.1-0.6-0.3l-3.1-11.4H31z"/>
</svg>
